PathFileType	4	(X/Y/Z)	C:\ABL_Data\ExoAging\Piloting\Dec 6 2019\Generated_files\static_2.trc
DataRate	CameraRate	NumFrames	NumMarkers	Units	OrigDataRate	OrigDataStartFrame	OrigNumFrames
100.00	100.00	       13	20	mm	100.00	214	       568
Frame#	Time	R.Acromium			L.Acromium			Sternum			R.ASIS			R.PSIS			S2			L.PSIS			L.ASIS			R.Knee			R.Ankle			L.Knee			L.Ankle			R.MKnee			R.MAnkle			L.MKnee			L.MAnkle			C7			T12			Clav			R.Back			
		X1	Y1	Z1	X2	Y2	Z2	X3	Y3	Z3	X4	Y4	Z4	X5	Y5	Z5	X6	Y6	Z6	X7	Y7	Z7	X8	Y8	Z8	X9	Y9	Z9	X10	Y10	Z10	X11	Y11	Z11	X12	Y12	Z12	X13	Y13	Z13	X14	Y14	Z14	X15	Y15	Z15	X16	Y16	Z16	X17	Y17	Z17	X18	Y18	Z18	X19	Y19	Z19	X20	Y20	Z20	

214	2.130	837.50842	385.18146	1494.90857	843.19940	789.16418	1485.64526				910.68353	448.79074	1005.53571	727.21478	526.78668	1046.37097	708.91083	580.72729	1021.95129	731.34961	630.11652	1049.84229	916.67151	708.10291	1018.28333	817.87201	382.85217	512.39905	759.09570	378.42172	86.28830	817.79419	764.82672	509.54739	766.68323	775.43127	78.68895	839.92474	495.15359	489.24539	803.62341	458.46304	92.00553	828.68799	651.79401	486.81735	783.66650	685.37537	93.41740	754.01532	572.16266	1555.46094	732.35742	581.19684	1187.52393	915.37750	578.59137	1461.12061	690.82794	457.38138	1393.95862	
215	2.140	837.49103	385.11288	1494.86145	843.18652	789.16315	1485.66479				910.62115	448.82599	1005.52985	727.17017	526.80408	1046.39868	708.87317	580.68921	1021.96149	731.30115	630.02600	1049.88733	916.58685	708.13989	1018.25195	817.82013	382.82620	512.32751	759.08636	378.42593	86.29707	817.73779	764.84796	509.56348	766.67792	775.45172	78.71371	839.87311	495.16293	489.33600	803.59412	458.47293	92.03851	828.60046	651.74042	486.85855	783.64368	685.36194	93.43034	753.99463	572.03748	1555.47559	732.28137	581.19763	1187.54651	915.35724	578.65698	1461.12964	690.80035	457.34424	1393.98352	
216	2.150	837.48444	384.91989	1494.88391	843.23322	789.07043	1485.71790				910.59442	448.78809	1005.58185	727.14539	526.78711	1046.45044	708.83209	580.68048	1022.00671	731.25391	629.97247	1049.94836	916.53400	708.08368	1018.30267	817.79529	382.81738	512.31653	759.11224	378.42755	86.33513	817.72272	764.81250	509.57819	766.66547	775.44696	78.73934	839.86786	495.14001	489.30615	803.91742	458.24023	91.81253	828.52472	651.72498	486.94260	783.60858	685.36224	93.44576	754.01868	572.01141	1555.51025	732.28119	581.16223	1187.60046	915.36725	578.54358	1461.16882	690.82605	457.32843	1393.99011	
217	2.160	837.49359	385.07501	1494.89722	843.25653	789.02625	1485.73840				910.56805	448.77298	1005.55682	727.11102	526.80475	1046.45654	708.79602	580.63959	1022.03333	731.21185	630.00793	1049.95166	916.47906	708.05353	1018.30780	817.78790	382.87714	512.38995	759.07788	378.42969	86.36996	817.68347	764.83807	509.58792	766.63916	775.48352	78.74532	839.90613	495.11874	489.29898	803.92181	458.25848	91.82552	828.45648	651.73999	486.90497	783.56958	685.36554	93.46913	754.04865	572.16241	1555.52307	732.29333	581.13690	1187.61804	915.34497	578.58759	1461.17944	690.80145	457.32910	1394.00317	
218	2.170	837.48669	384.96384	1494.83923	843.25269	788.97339	1485.77197				910.50470	448.74158	1005.49884	727.08350	526.73944	1046.45886	708.73749	580.61591	1022.03448	731.17297	629.99390	1049.94934	916.45758	708.08630	1018.31024	817.78564	382.83499	512.39575	759.09137	378.40472	86.31116	817.63568	764.85791	509.61188	766.65387	775.46252	78.72540	839.85223	495.14499	489.33044	803.91986	458.27017	91.82823	828.41913	651.76862	486.87512	783.61121	685.37280	93.47170	754.00610	571.93158	1555.51196	732.27698	581.13055	1187.62561	915.35156	578.49176	1461.17798	690.80237	457.28992	1394.00513	
219	2.180	837.49219	384.85291	1494.83655	843.23956	788.96771	1485.78223				910.50336	448.73593	1005.51593	727.05817	526.71497	1046.46606	708.69031	580.57501	1022.02985	731.12891	629.85938	1049.94360	916.42786	708.01086	1018.30298	817.74524	382.83060	512.36761	759.06854	378.41681	86.31001	817.59143	764.84406	509.59647	766.66235	775.42914	78.70345	839.82648	495.10477	489.27527	803.56470	458.45383	92.01717	828.46838	651.74347	486.85840	783.64417	685.36877	93.41521	753.99890	571.85175	1555.48877	732.26379	581.09741	1187.63464	915.35724	578.39624	1461.18567	690.78741	457.29285	1393.98438	
220	2.190	837.49042	384.94241	1494.87415	843.25494	788.88965	1485.75256				910.46155	448.74069	1005.50592	727.03668	526.69446	1046.44543	708.62933	580.58435	1022.03052	731.05298	629.82642	1049.92786	916.39258	708.06604	1018.26300	817.69781	382.83887	512.37775	759.09503	378.40393	86.29099	817.55890	764.80945	509.57816	766.65424	775.43298	78.67805	839.80145	495.09235	489.29575	803.57874	458.44214	91.97870	828.36420	651.75311	486.83652	783.63922	685.37665	93.41105	754.02649	571.87903	1555.47534	732.26172	581.05640	1187.59363	915.35541	578.45093	1461.17786	690.79651	457.24350	1393.98633	
221	2.200	837.51349	384.94833	1494.91077	843.23853	788.90375	1485.74036				910.42194	448.72925	1005.52441	726.99127	526.71692	1046.45337	708.58771	580.55603	1022.04993	731.00378	629.84326	1049.95239	916.33722	708.01550	1018.30713	817.67603	382.78873	512.38794	759.06781	378.41226	86.29794	817.51868	764.82269	509.59344	766.66895	775.43958	78.68691	840.80048	494.85062	488.95941	803.57196	458.43665	92.00346	828.26886	651.79785	486.82547	783.63348	685.33490	93.39989	754.03900	571.89746	1555.49329	732.19965	581.07379	1187.61523	915.35870	578.41986	1461.17139	690.77515	457.24072	1393.95776	
222	2.210	837.49683	384.79483	1494.82483	843.29449	788.80304	1485.79163				910.39587	448.90063	1005.58807	726.96631	526.70270	1046.50427	708.56146	580.51587	1022.08728	730.98993	629.76587	1050.01709	916.34473	708.04132	1018.26349	817.62531	382.78723	512.38129	759.08130	378.38965	86.29581	817.48969	764.77509	509.58374	766.62329	775.43042	78.69963	840.71613	494.84399	488.96481	803.53845	458.43591	92.01672	828.23602	651.76642	486.84616	783.59332	685.35712	93.40521	754.02942	571.79083	1555.53418	732.19073	581.01923	1187.67578	915.37238	578.34326	1461.18457	690.79236	457.22226	1394.01953	
223	2.220	837.51062	384.81348	1494.81653	843.29138	788.80182	1485.77637				910.37213	448.89410	1005.59491	726.94318	526.67798	1046.51123	708.51862	580.53351	1022.11664	730.94104	629.74329	1050.02209	916.32428	708.03961	1018.26306	817.55743	382.81787	512.32465	759.07385	378.40823	86.29311	817.44745	764.81500	509.60986	766.63123	775.45563	78.70295	840.69653	494.82623	488.94308	803.54840	458.44507	91.99673	828.20929	651.74670	486.89999	783.58179	685.34808	93.42772	754.04077	571.83417	1555.53979	732.17010	580.99829	1187.65186	915.38751	578.22064	1461.19275	690.77350	457.20392	1394.02075	
224	2.230	837.51062	384.77304	1494.80981	843.36969	788.77905	1485.79028				910.31445	448.86365	1005.59479	726.90210	526.70514	1046.54016	708.48572	580.51086	1022.10425	730.89276	629.74408	1050.02295	916.28668	707.98755	1018.24988	817.53589	382.79239	512.34857	759.07410	378.40988	86.30009	817.46527	764.79742	509.60675	766.63660	775.46423	78.70591	840.61920	494.79852	488.94623	803.54822	458.44135	92.01021	828.22961	651.70215	486.89185	783.58954	685.34900	93.41612	754.05829	571.79193	1555.54517	732.15259	580.98212	1187.70117	915.38715	578.21960	1461.19751	690.77441	457.15765	1394.03284	
225	2.240	837.50574	384.75275	1494.81580	843.35870	788.68848	1485.78589				910.30371	448.89301	1005.57465	726.87061	526.67780	1046.52856	708.45361	580.50415	1022.08972	730.84271	629.76544	1050.01746	916.24872	708.03711	1018.22449	817.55664	382.77466	512.35046	759.08386	378.38467	86.25271	817.45886	764.79303	509.62820	766.64258	775.44104	78.69116	840.66473	494.79745	488.97845	803.53455	458.44928	92.01965	828.19061	651.71149	486.86472	783.59430	685.33081	93.39093	754.06909	571.72327	1555.51453	732.13007	580.99048	1187.68823	915.37872	578.30133	1461.15466	690.76038	457.18906	1394.01184	
226	2.250	837.51447	384.84634	1494.80652	843.31592	788.72284	1485.73755				910.26514	448.84708	1005.59192	726.83716	526.67688	1046.50427	708.37659	580.50677	1022.08783	730.80524	629.74249	1050.00476	916.17847	708.01300	1018.21436	817.46967	382.77377	512.32916	759.08020	378.39078	86.27113	817.44348	764.79553	509.61176	766.64264	775.42627	78.68052	840.61755	494.81107	488.96231	803.91010	458.24197	91.81696	828.17310	651.71802	486.85815	783.61450	685.35706	93.40788	754.07251	571.75177	1555.54382	732.08307	580.98773	1187.68457	915.39343	578.22949	1461.13281	690.76819	457.13916	1394.02832	
